<svg width="19" height="18" viewBox="0 0 19 18" fill="none" xmlns="http://www.w3.org/2000/svg">
<g opacity="0.5">
<path fill-rule="evenodd" clip-rule="evenodd" d="M9.35076 11.182C10.5557 11.182 11.5326 10.2052 11.5326 9.00018C11.5326 7.79519 10.5557 6.81836 9.35076 6.81836C8.14578 6.81836 7.16895 7.79519 7.16895 9.00018C7.16895 10.2052 8.14578 11.182 9.35076 11.182Z" stroke="#013C61" stroke-width="1.5" stroke-linecap="round" stroke-linejoin="round"/>
<path fill-rule="evenodd" clip-rule="evenodd" d="M14.7324 11.1818C14.5343 11.6306 14.6294 12.1548 14.9724 12.5055L15.016 12.5491C15.2892 12.8219 15.4426 13.1921 15.4426 13.5782C15.4426 13.9642 15.2892 14.3344 15.016 14.6073C14.7432 14.8804 14.373 15.0339 13.9869 15.0339C13.6009 15.0339 13.2307 14.8804 12.9579 14.6073L12.9142 14.5636C12.5635 14.2206 12.0394 14.1256 11.5906 14.3236C11.151 14.512 10.8652 14.9435 10.8633 15.4218V15.5455C10.8633 16.3488 10.2121 17 9.40877 17C8.60544 17 7.95422 16.3488 7.95422 15.5455V15.48C7.9427 14.9874 7.63122 14.5519 7.16877 14.3818C6.71998 14.1837 6.19581 14.2788 5.84513 14.6218L5.8015 14.6655C5.52867 14.9386 5.15845 15.0921 4.7724 15.0921C4.38635 15.0921 4.01614 14.9386 3.74331 14.6655C3.47018 14.3926 3.31671 14.0224 3.31671 13.6364C3.31671 13.2503 3.47018 12.8801 3.74331 12.6073L3.78695 12.5636C4.12998 12.213 4.22502 11.6888 4.02695 11.24C3.83854 10.8004 3.40705 10.5146 2.92877 10.5127H2.80513C2.00181 10.5127 1.35059 9.86151 1.35059 9.05818C1.35059 8.25486 2.00181 7.60364 2.80513 7.60364H2.87059C3.36319 7.59211 3.79868 7.28063 3.96877 6.81818C4.16684 6.36939 4.0718 5.84523 3.72877 5.49455L3.68513 5.45091C3.412 5.17808 3.25853 4.80787 3.25853 4.42182C3.25853 4.03577 3.412 3.66555 3.68513 3.39273C3.95796 3.1196 4.32817 2.96613 4.71422 2.96613C5.10027 2.96613 5.47049 3.1196 5.74331 3.39273L5.78695 3.43636C6.13763 3.77939 6.66179 3.87443 7.11059 3.67636H7.16877C7.60838 3.48795 7.89413 3.05647 7.89604 2.57818V2.45455C7.89604 1.65122 8.54726 1 9.35059 1C10.1539 1 10.8051 1.65122 10.8051 2.45455V2.52C10.807 2.99829 11.0928 3.42977 11.5324 3.61818C11.9812 3.81625 12.5054 3.72121 12.856 3.37818L12.8997 3.33455C13.1725 3.06142 13.5427 2.90795 13.9288 2.90795C14.3148 2.90795 14.685 3.06142 14.9579 3.33455C15.231 3.60737 15.3845 3.97759 15.3845 4.36364C15.3845 4.74969 15.231 5.1199 14.9579 5.39273L14.9142 5.43636C14.5712 5.78704 14.4762 6.31121 14.6742 6.76V6.81818C14.8626 7.2578 15.2941 7.54355 15.7724 7.54545H15.896C16.6994 7.54545 17.3506 8.19668 17.3506 9C17.3506 9.80332 16.6994 10.4545 15.896 10.4545H15.8306C15.3523 10.4565 14.9208 10.7422 14.7324 11.1818Z" stroke="#013C61" stroke-width="1.5" stroke-linecap="round" stroke-linejoin="round"/>
</g>
</svg>
