<svg width="24" height="21" viewBox="0 0 24 21" fill="none" xmlns="http://www.w3.org/2000/svg">
<g opacity="0.5">
<path d="M17 19.3333V17.2963C17 15.0463 15.2091 13.2222 13 13.2222H5C2.79086 13.2222 1 15.0463 1 17.2963V19.3333" stroke="#013C61" stroke-width="1.5" stroke-linecap="round" stroke-linejoin="round"/>
<path fill-rule="evenodd" clip-rule="evenodd" d="M9 9.14815C11.2091 9.14815 13 7.32412 13 5.07407C13 2.82403 11.2091 1 9 1C6.79086 1 5 2.82403 5 5.07407C5 7.32412 6.79086 9.14815 9 9.14815Z" stroke="#013C61" stroke-width="1.5" stroke-linecap="round" stroke-linejoin="round"/>
<path d="M23 19.3333V17.2963C22.9986 15.4396 21.765 13.8188 20 13.3546" stroke="#013C61" stroke-width="1.5" stroke-linecap="round" stroke-linejoin="round"/>
<path d="M16 1.13242C17.7699 1.59398 19.0078 3.21833 19.0078 5.07917C19.0078 6.94002 17.7699 8.56437 16 9.02593" stroke="#013C61" stroke-width="1.5" stroke-linecap="round" stroke-linejoin="round"/>
</g>
</svg>
