<svg width="17" height="17" viewBox="0 0 17 17" fill="none" xmlns="http://www.w3.org/2000/svg">
<path fill-rule="evenodd" clip-rule="evenodd" d="M16.2383 12.3676V14.6533C16.24 15.0824 16.0608 15.4923 15.7447 15.7824C15.4285 16.0724 15.0047 16.2158 14.5774 16.1772C12.2328 15.9224 9.98078 15.1213 8.00211 13.8381C6.16122 12.6683 4.60047 11.1076 3.43069 9.26668C2.14305 7.27903 1.34173 5.01601 1.09164 2.66097C1.05314 2.23496 1.19547 1.8124 1.48384 1.49649C1.77222 1.18058 2.18009 1.00042 2.60783 1.00001H4.89354C5.65839 0.992486 6.31031 1.55313 6.41735 2.31049C6.51383 3.04197 6.69274 3.76019 6.95069 4.45144C7.16001 5.0083 7.02613 5.63606 6.60783 6.05906L5.64021 7.02668C6.72482 8.93414 8.30418 10.5135 10.2116 11.5981L11.1793 10.6305C11.6023 10.2122 12.23 10.0783 12.7869 10.2876C13.4781 10.5456 14.1963 10.7245 14.9278 10.821C15.694 10.9291 16.2575 11.5941 16.2383 12.3676Z" stroke="#013C61" stroke-width="1.5" stroke-linecap="round" stroke-linejoin="round"/>
</svg>
